<?xml version="1.0" encoding="utf-8"?>
<!-- Generator: Adobe Illustrator 23.0.0, SVG Export Plug-In . SVG Version: 6.00 Build 0)  -->
<svg version="1.1" id="Layer_1" xmlns="http://www.w3.org/2000/svg" xmlns:xlink="http://www.w3.org/1999/xlink" x="0px" y="0px"
	 viewBox="0 0 240 60" style="enable-background:new 0 0 240 60;" xml:space="preserve">
<style type="text/css">
	.st0{fill:#FFFFFF;}
</style>
<g>
	<g>
		<path d="M200.38,20.8c-18.27,0.44-36.03,3.8-53.7,7.76c-19.01,4.25-37.95,8.85-56.99,12.97C73.23,45.08,56.61,48,39.7,47.43
			c-9.87-0.33-19.84-1.22-28.38-7.29c-2.89-2.06-4.81-4.67-5.27-8.16c-0.17-1.29-0.02-2.84,0.57-3.96c0.47-0.9,1.82-1.35,2.78-1.99
			c0.02,1.02-0.15,2.09,0.1,3.05c0.61,2.33,0.87,5.03,2.26,6.81c3.38,4.33,8.67,5.6,13.73,6.63c13.76,2.79,27.7,2.28,41.21-0.69
			c23.17-5.1,46.07-11.47,69.15-17.02c16.24-3.9,32.47-8.12,48.93-10.69c12.58-1.96,25.59-1.87,37.66,3.72
			c3.41,1.58,6.76,3.6,9.63,6.02c7.29,6.14,6.73,14.23-1.05,19.63c-7.83,5.45-22.49,5.45-29.9-0.04c-2.3-1.7-4.28-3.77-3.58-6.91
			c0.21-0.95,1.54-1.64,2.36-2.46c0.32,0.86,0.6,1.74,0.97,2.58c0.61,1.4,0.91,3.22,1.98,4.08c6.95,5.61,22.52,4.37,28.55-2.1
			c3.56-3.81,3.23-9.23-1.25-11.88c-3.11-1.84-6.69-3.29-10.23-3.89C213.48,21.77,206.9,21.44,200.38,20.8z"/>
	</g>
</g>
</svg>
